<svg width="16" height="16" viewBox="0 0 16 16" fill="none" xmlns="http://www.w3.org/2000/svg">
<mask id="mask0_1914_11139" style="mask-type:alpha" maskUnits="userSpaceOnUse" x="0" y="0" width="16" height="16">
<path d="M0.666626 7.99984C0.666626 7.99984 3.33329 2.6665 7.99996 2.6665C12.6666 2.6665 15.3333 7.99984 15.3333 7.99984C15.3333 7.99984 12.6666 13.3332 7.99996 13.3332C3.33329 13.3332 0.666626 7.99984 0.666626 7.99984Z" stroke="white" stroke-linecap="round" stroke-linejoin="round"/>
<path d="M7.99996 9.99984C9.10453 9.99984 9.99996 9.10441 9.99996 7.99984C9.99996 6.89527 9.10453 5.99984 7.99996 5.99984C6.89539 5.99984 5.99996 6.89527 5.99996 7.99984C5.99996 9.10441 6.89539 9.99984 7.99996 9.99984Z" stroke="white" stroke-linecap="round" stroke-linejoin="round"/>
</mask>
<g mask="url(#mask0_1914_11139)">
<rect width="16" height="16" fill="#4D4D4D"/>
</g>
</svg>
